<?xml version="1.0" standalone="no"?><!DOCTYPE svg PUBLIC "-//W3C//DTD SVG 1.1//EN" "http://www.w3.org/Graphics/SVG/1.1/DTD/svg11.dtd"><svg t="1704098355105" class="icon" viewBox="0 0 1024 1024" version="1.1" xmlns="http://www.w3.org/2000/svg" p-id="7302" xmlns:xlink="http://www.w3.org/1999/xlink" width="200" height="200"><path d="M252.1 805.4c-2.7 10.8-7.2 11.9 4.8 22.1 12.7 9.9 21.9 28.1 29 41.6 7.2 13.5 35.5 54.4 46.4 56.2 10.8 2 20.2 3.7 20.2 3.7s17.4-19.1 1.1-28.3c-16.4-9-13.5-13.5-15.4-23.5-1.8-9.9 0-21.8 3.7-30s22.9-21.8 30-31.8c7.2-10.2 26.2-43.7 30-54.6 2-6.3 17.4-15 31.8-23.1L367.5 848l4.4 2.7L443 732c6.6-4 12.4-7.5 15.1-10.4 9-9.9 46.3-43.7 52.7-57.2 6.1-13.2 15.4-41.6 15.4-41.6s14.6 9.1 19.1 19.1c4.8 10 0 1.1 1.1 46.4 0.8 45.3-8.2 71-3.7 99.9 4.4 28.9-1.1 44.3-5.5 60.7s-12.7 36.2-10.8 48.1c1.8 11.9 23.5 6.4 40 8.2 16.4 2.1 34.5 1.1 50.8 1.1 16.4 0 54.3-1.6 63.5-2.7 9-1.1 15.4-12.8 4.4-22.9-10.8-10-40.9-20.9-40.9-20.9s-16.4-6.4-24.6-17.3c-8.2-10.8-10.8-38.4-10.8-50.8 0-12.6-1.6-48 1.1-64.4 2.3-12.4 6.1-38.9 10.8-57.2l82-194.6c9.6-0.8 10.2-0.4 13.4-7.2 3.5-7.2 10-14.6 12.7-19.1 2.7-4.4 10.2-12.7 3.7-19.1-0.9-0.9-2.3-2-3.5-2.7 14-15.1-5.5-19.1-5.5-19.1-13.1-2.7-15.7 5.4-15.7 12.4-5.6-0.6-16.3-0.8-18.7-3.2-2.3-2-27-21-38.6-30l49.6-69.9s1.1-1.6 3-4.2c4.4 14.2 10.7 23.5 18.6 28.3 4.2 2.3 7.9 3 10.8 3 3.1 0 5.4-1.1 5.6-1.1 9.5-5.9 14.6-12.7 15.1-20.9 0.8-12.7-9.1-25.4-16.9-33.3 0.4-6-1.1-9.2-1.1-9.2s8.2-7.5 0-9.2c-8.2-1.6-4.4-9.9-7.2-10.8-2.7-0.8 1.1-11.1-7.2-10-8.2 1.1-10.8 1.1-11.9 3.7-1.1 2.7-28.2 1.1-33.7 14.6l8.2-16.5s11.9-1.1 9.2-11.9c0 0 14.6 0 14.6-7.2 0 0 17.1 14.6 15.4-7.2 0 0 22.5-5.5 18.1-16.4 0 0 44.4-25.3 28.8-49.1-16.3-23.7-2.7-30.9-13.5-36.4S717.1 92 692.5 99.2c-24.6 7.5-19.8 18.3-29 22.9-3.7 1.9-6.8 1.2-10.2 0 0.8 1.3 1.3 3 1.1 4.8-0.8 10 4.7 23.5-1.8 24.6-6.6 0.8-13-2.1-20.2-9.2-7.5-7.5-14.6-18.3-20.2-22.9-5.4-4.8-14.6-5.5-17.3-1.1s-13.5 11.6-18.1 12.7c-4.4 1.1-21.9-8.2-24.6-10.8-2.8-2.7-10.2-5.4-20.2-2.7s-22.9 6.4-24.6 2.7c-2.1-3.7-4.8-6.4-9.2 0-4.4 6.4-19.1 21.8-20.9 32.6-1.8 10.7-15.4 33.6-31.8 44.4-16.4 10.8-21.9-6.4-28.3 8.2-6.4 14.6-5.5 24.5-11.9 30-6.1 5.5-0.8 3.7-7.2 27.3-6.1 23.5-16.3 10.8-18.1 26.2-1.9 15.5-13.5 46.4 1.8 79 15.4 32.8 28.1 33.6 38.9 40s30 3.7 30 3.7-2 14.6-6.4 27.3c-4.7 12.7-5.4 11.9 1.8 10.8 0 0 2.7 47.1 12.7 59.1 10 11.6-4.7 73.7-14.6 112.6-10 39.2-1.1 11.9-27.3 31s-61.8 59.1-79.8 84.5c-18.1 25.5-12.7 32.6-26.2 38.1-13.4 5.6-26.4-0.8-41.8 12.8-15.3 13.8-14.4 6.6-17 17.6z m471.8-468.5c-5.2-3.3-12-10.7-16.7-28.2 3.7-4.3 8.5-8.8 12.7-10 6.6-2.1 11.6-1.1 14.3-3.3 6.4 7.2 14.2 17.6 13.4 27.3-0.3 6.4-4.4 11.9-11.9 16.4 0-0.1-1.3 0.3-3.2 0.3-2.2 0.1-5.3-0.5-8.6-2.5z m-48.6-22c8.2-0.8 11.1 2 10.8 2.1l-40.9 63.2c3-9 11.9-38.1 8.2-44.4-4.3-7.3 13.6-19.9 21.9-20.9zM601 507.6c-1.1-34.5-1.1-26.2 10.8-39.6 11.8-13.8 10-10 10-10s8.2 31.6 15.4 37.2l6.4-1.1s-6.1-14.6-7.2-32.6c0 0 6.3-3.9 18.1-1.1s12.6-4.7 21.8 1.8c8.2 5.6 10.6 12.8 20.3 13.5l-64.6 155c-0.8-4.2-2.5-9.4-5.5-16.1-10.2-21.7-24.5-72.5-25.5-107z" p-id="7303" fill="#2c2c2c"></path><path d="M652.4 122.6c-4.4-1.9-9-5.5-14.3-5.5 0-0.1 11-0.1 14.3 5.5z" p-id="7304" fill="#2c2c2c"></path></svg>